<mxfile host="app.diagrams.net" modified="2023-04-28T09:18:43.631Z" agent="Mozilla/5.0 (Macintosh; Intel Mac OS X 10_15_7) AppleWebKit/537.36 (KHTML, like Gecko) Chrome/112.0.0.0 Safari/537.36" etag="8wsqcTwZkdOCVzSjninI" version="21.2.3" type="github">
  <diagram name="페이지-1" id="T4Wuuig0YvPSh3bQj3FD">
    <mxGraphModel dx="2464" dy="3999" grid="1" gridSize="10" guides="1" tooltips="1" connect="1" arrows="1" fold="1" page="1" pageScale="1" pageWidth="827" pageHeight="1169" math="0" shadow="0">
      <root>
        <mxCell id="0" />
        <mxCell id="1" parent="0" />
        <mxCell id="jKe8y5UNzDwb2o2jiz_U-1" value="이용자" style="shape=umlActor;verticalLabelPosition=bottom;verticalAlign=top;html=1;" parent="1" vertex="1">
          <mxGeometry x="140" y="-180" width="30" height="60" as="geometry" />
        </mxCell>
        <mxCell id="jKe8y5UNzDwb2o2jiz_U-2" value="게시판 서비스" style="shape=umlFrame;whiteSpace=wrap;html=1;width=150;height=30;" parent="1" vertex="1">
          <mxGeometry x="220" y="-350" width="700" height="630" as="geometry" />
        </mxCell>
        <mxCell id="jKe8y5UNzDwb2o2jiz_U-3" style="rounded=0;orthogonalLoop=1;jettySize=auto;html=1;entryX=1;entryY=0.3333333333333333;entryDx=0;entryDy=0;entryPerimeter=0;exitX=0;exitY=0.5;exitDx=0;exitDy=0;endArrow=none;endFill=0;" parent="1" source="jKe8y5UNzDwb2o2jiz_U-4" target="jKe8y5UNzDwb2o2jiz_U-1" edge="1">
          <mxGeometry relative="1" as="geometry" />
        </mxCell>
        <mxCell id="jKe8y5UNzDwb2o2jiz_U-4" value="회원가입" style="rounded=1;whiteSpace=wrap;html=1;arcSize=40;fontColor=#000000;fillColor=#ffffc0;strokeColor=#ff0000;" parent="1" vertex="1">
          <mxGeometry x="310" y="-180" width="120" height="40" as="geometry" />
        </mxCell>
        <mxCell id="jKe8y5UNzDwb2o2jiz_U-5" value="게시판 보기" style="rounded=1;whiteSpace=wrap;html=1;arcSize=40;fontColor=#000000;fillColor=#ffffc0;strokeColor=#ff0000;" parent="1" vertex="1">
          <mxGeometry x="310" y="-60" width="120" height="40" as="geometry" />
        </mxCell>
        <mxCell id="jKe8y5UNzDwb2o2jiz_U-6" value="게시글 보기" style="rounded=1;whiteSpace=wrap;html=1;arcSize=40;fontColor=#000000;fillColor=#ffffc0;strokeColor=#ff0000;" parent="1" vertex="1">
          <mxGeometry x="310" y="170" width="120" height="40" as="geometry" />
        </mxCell>
        <mxCell id="jKe8y5UNzDwb2o2jiz_U-7" value="" style="edgeStyle=none;rounded=0;orthogonalLoop=1;jettySize=auto;html=1;endArrow=classic;endFill=1;dashed=1;" parent="1" source="jKe8y5UNzDwb2o2jiz_U-8" target="jKe8y5UNzDwb2o2jiz_U-9" edge="1">
          <mxGeometry relative="1" as="geometry" />
        </mxCell>
        <mxCell id="jKe8y5UNzDwb2o2jiz_U-8" value="회원 로그인" style="rounded=1;whiteSpace=wrap;html=1;arcSize=40;fontColor=#000000;fillColor=#ffffc0;strokeColor=#ff0000;" parent="1" vertex="1">
          <mxGeometry x="520" y="-290" width="120" height="40" as="geometry" />
        </mxCell>
        <mxCell id="jKe8y5UNzDwb2o2jiz_U-9" value="인증" style="rounded=1;whiteSpace=wrap;html=1;arcSize=34;fontColor=#000000;fillColor=#ffffc0;strokeColor=#ff0000;" parent="1" vertex="1">
          <mxGeometry x="770" y="-290" width="120" height="40" as="geometry" />
        </mxCell>
        <mxCell id="jKe8y5UNzDwb2o2jiz_U-10" value="" style="edgeStyle=none;rounded=0;orthogonalLoop=1;jettySize=auto;html=1;endArrow=none;endFill=0;" parent="1" source="jKe8y5UNzDwb2o2jiz_U-11" target="jKe8y5UNzDwb2o2jiz_U-9" edge="1">
          <mxGeometry relative="1" as="geometry" />
        </mxCell>
        <mxCell id="jKe8y5UNzDwb2o2jiz_U-11" value="로그인 실패" style="rounded=1;whiteSpace=wrap;html=1;arcSize=40;fontColor=#000000;fillColor=#ffffc0;strokeColor=#ff0000;" parent="1" vertex="1">
          <mxGeometry x="770" y="-180" width="120" height="40" as="geometry" />
        </mxCell>
        <mxCell id="jKe8y5UNzDwb2o2jiz_U-12" value="게시판 정렬" style="rounded=1;whiteSpace=wrap;html=1;arcSize=40;fontColor=#000000;fillColor=#ffffc0;strokeColor=#ff0000;" parent="1" vertex="1">
          <mxGeometry x="555" y="-140" width="120" height="40" as="geometry" />
        </mxCell>
        <mxCell id="jKe8y5UNzDwb2o2jiz_U-13" value="게시판 검색" style="rounded=1;whiteSpace=wrap;html=1;arcSize=40;fontColor=#000000;fillColor=#ffffc0;strokeColor=#ff0000;" parent="1" vertex="1">
          <mxGeometry x="555" y="-60" width="120" height="40" as="geometry" />
        </mxCell>
        <mxCell id="jKe8y5UNzDwb2o2jiz_U-14" value="게시글 &lt;br&gt;쓰기/수정/삭제" style="rounded=1;whiteSpace=wrap;html=1;arcSize=40;fontColor=#000000;fillColor=#ffffc0;strokeColor=#ff0000;" parent="1" vertex="1">
          <mxGeometry x="555" y="130" width="120" height="40" as="geometry" />
        </mxCell>
        <mxCell id="jKe8y5UNzDwb2o2jiz_U-15" value="댓글 &lt;br&gt;보기/쓰기/수정/삭제" style="rounded=1;whiteSpace=wrap;html=1;arcSize=40;fontColor=#000000;fillColor=#ffffc0;strokeColor=#ff0000;" parent="1" vertex="1">
          <mxGeometry x="555" y="210" width="120" height="40" as="geometry" />
        </mxCell>
        <mxCell id="jKe8y5UNzDwb2o2jiz_U-16" style="edgeStyle=none;rounded=0;orthogonalLoop=1;jettySize=auto;html=1;exitX=0.5;exitY=1;exitDx=0;exitDy=0;" parent="1" source="jKe8y5UNzDwb2o2jiz_U-8" target="jKe8y5UNzDwb2o2jiz_U-8" edge="1">
          <mxGeometry relative="1" as="geometry" />
        </mxCell>
        <mxCell id="jKe8y5UNzDwb2o2jiz_U-17" style="rounded=0;orthogonalLoop=1;jettySize=auto;html=1;exitX=0;exitY=0.5;exitDx=0;exitDy=0;endArrow=none;endFill=0;" parent="1" source="jKe8y5UNzDwb2o2jiz_U-8" edge="1">
          <mxGeometry relative="1" as="geometry">
            <mxPoint x="290" y="-200" as="sourcePoint" />
            <mxPoint x="170" y="-160" as="targetPoint" />
          </mxGeometry>
        </mxCell>
        <mxCell id="jKe8y5UNzDwb2o2jiz_U-18" style="rounded=0;orthogonalLoop=1;jettySize=auto;html=1;exitX=0;exitY=0.5;exitDx=0;exitDy=0;endArrow=none;endFill=0;" parent="1" source="jKe8y5UNzDwb2o2jiz_U-5" edge="1">
          <mxGeometry relative="1" as="geometry">
            <mxPoint x="320" y="-150" as="sourcePoint" />
            <mxPoint x="170" y="-160" as="targetPoint" />
          </mxGeometry>
        </mxCell>
        <mxCell id="jKe8y5UNzDwb2o2jiz_U-19" style="rounded=0;orthogonalLoop=1;jettySize=auto;html=1;exitX=0;exitY=0.5;exitDx=0;exitDy=0;endArrow=none;endFill=0;" parent="1" source="jKe8y5UNzDwb2o2jiz_U-6" edge="1">
          <mxGeometry relative="1" as="geometry">
            <mxPoint x="320" y="-70" as="sourcePoint" />
            <mxPoint x="170" y="-160" as="targetPoint" />
          </mxGeometry>
        </mxCell>
        <mxCell id="jKe8y5UNzDwb2o2jiz_U-20" value="" style="edgeStyle=none;rounded=0;orthogonalLoop=1;jettySize=auto;html=1;endArrow=none;endFill=0;entryX=0;entryY=0.5;entryDx=0;entryDy=0;exitX=1;exitY=0.5;exitDx=0;exitDy=0;dashed=1;startArrow=classic;startFill=1;dashPattern=1 1;" parent="1" source="jKe8y5UNzDwb2o2jiz_U-8" target="jKe8y5UNzDwb2o2jiz_U-11" edge="1">
          <mxGeometry relative="1" as="geometry">
            <mxPoint x="570" y="-260" as="sourcePoint" />
            <mxPoint x="650" y="-260" as="targetPoint" />
          </mxGeometry>
        </mxCell>
        <mxCell id="jKe8y5UNzDwb2o2jiz_U-21" value="" style="edgeStyle=none;rounded=0;orthogonalLoop=1;jettySize=auto;html=1;endArrow=classic;endFill=1;dashed=1;startArrow=classic;startFill=1;" parent="1" edge="1">
          <mxGeometry relative="1" as="geometry">
            <mxPoint x="750" y="174.47000000000025" as="sourcePoint" />
            <mxPoint x="830" y="174.47000000000025" as="targetPoint" />
          </mxGeometry>
        </mxCell>
        <mxCell id="jKe8y5UNzDwb2o2jiz_U-22" value="포함관계 &amp;lt;&amp;lt;include&amp;gt;&amp;gt;" style="text;html=1;strokeColor=none;fillColor=none;align=center;verticalAlign=middle;whiteSpace=wrap;rounded=0;" parent="1" vertex="1">
          <mxGeometry x="850" y="160" width="60" height="30" as="geometry" />
        </mxCell>
        <mxCell id="jKe8y5UNzDwb2o2jiz_U-23" value="&lt;br&gt;&lt;span style=&quot;text-align: center;&quot;&gt;확장관계 &amp;lt;&amp;lt;include&amp;gt;&amp;gt;&lt;br&gt;&lt;/span&gt;- 인증기능은 회원 로그인 기능에 포함되어 있다.&lt;br&gt;- 로그인을 하면 인증이 된다." style="text;html=1;strokeColor=none;fillColor=none;align=left;verticalAlign=middle;whiteSpace=wrap;rounded=0;imageAlign=right;" parent="1" vertex="1">
          <mxGeometry x="530" y="335" width="230" height="30" as="geometry" />
        </mxCell>
        <mxCell id="jKe8y5UNzDwb2o2jiz_U-24" value="확장관계 &amp;lt;&amp;lt;include&amp;gt;&amp;gt;" style="text;html=1;strokeColor=none;fillColor=none;align=center;verticalAlign=middle;whiteSpace=wrap;rounded=0;" parent="1" vertex="1">
          <mxGeometry x="850" y="210" width="60" height="30" as="geometry" />
        </mxCell>
        <mxCell id="jKe8y5UNzDwb2o2jiz_U-25" value="&lt;span style=&quot;text-align: center;&quot;&gt;포함관계 &amp;lt;&amp;lt;include&amp;gt;&amp;gt;&lt;/span&gt;&lt;br&gt;- 로그인을 할 때 로그인 실패가 발생할 수 있다." style="text;html=1;strokeColor=none;fillColor=none;align=left;verticalAlign=middle;whiteSpace=wrap;rounded=0;" parent="1" vertex="1">
          <mxGeometry x="530" y="403" width="230" height="30" as="geometry" />
        </mxCell>
        <mxCell id="jKe8y5UNzDwb2o2jiz_U-26" value="" style="rounded=0;orthogonalLoop=1;jettySize=auto;html=1;endArrow=classic;endFill=1;dashed=1;exitX=1;exitY=0.5;exitDx=0;exitDy=0;entryX=0.5;entryY=1;entryDx=0;entryDy=0;" parent="1" source="jKe8y5UNzDwb2o2jiz_U-5" target="jKe8y5UNzDwb2o2jiz_U-8" edge="1">
          <mxGeometry relative="1" as="geometry">
            <mxPoint x="440" y="-80.42000000000002" as="sourcePoint" />
            <mxPoint x="570" y="-80.42000000000002" as="targetPoint" />
          </mxGeometry>
        </mxCell>
        <mxCell id="jKe8y5UNzDwb2o2jiz_U-27" value="" style="rounded=0;orthogonalLoop=1;jettySize=auto;html=1;endArrow=classic;endFill=1;dashed=1;exitX=1;exitY=0.5;exitDx=0;exitDy=0;entryX=0.5;entryY=1;entryDx=0;entryDy=0;" parent="1" source="jKe8y5UNzDwb2o2jiz_U-6" target="jKe8y5UNzDwb2o2jiz_U-8" edge="1">
          <mxGeometry relative="1" as="geometry">
            <mxPoint x="449.9999999999999" y="110" as="sourcePoint" />
            <mxPoint x="600" y="-60" as="targetPoint" />
          </mxGeometry>
        </mxCell>
        <mxCell id="jKe8y5UNzDwb2o2jiz_U-28" value="&lt;br&gt;" style="edgeLabel;html=1;align=center;verticalAlign=middle;resizable=0;points=[];" parent="jKe8y5UNzDwb2o2jiz_U-27" vertex="1" connectable="0">
          <mxGeometry x="0.0484" y="-2" relative="1" as="geometry">
            <mxPoint as="offset" />
          </mxGeometry>
        </mxCell>
        <mxCell id="jKe8y5UNzDwb2o2jiz_U-29" value="&lt;span style=&quot;text-align: center;&quot;&gt;확장관계 &amp;lt;&amp;lt;include&amp;gt;&amp;gt;&lt;/span&gt;&lt;br style=&quot;text-align: center;&quot;&gt;- 게시판 보기, 게시글 보기 모두 로그인 후에 가능하다." style="text;html=1;strokeColor=none;fillColor=none;align=left;verticalAlign=middle;whiteSpace=wrap;rounded=0;" parent="1" vertex="1">
          <mxGeometry x="530" y="493" width="300" height="30" as="geometry" />
        </mxCell>
        <mxCell id="jKe8y5UNzDwb2o2jiz_U-30" value="게시판 페이징" style="rounded=1;whiteSpace=wrap;html=1;arcSize=40;fontColor=#000000;fillColor=#ffffc0;strokeColor=#ff0000;" parent="1" vertex="1">
          <mxGeometry x="555" y="10" width="120" height="40" as="geometry" />
        </mxCell>
        <mxCell id="jKe8y5UNzDwb2o2jiz_U-31" value="" style="edgeStyle=none;rounded=0;orthogonalLoop=1;jettySize=auto;html=1;endArrow=none;endFill=0;entryX=0;entryY=0.5;entryDx=0;entryDy=0;dashed=1;startArrow=classic;startFill=1;dashPattern=1 1;" parent="1" target="jKe8y5UNzDwb2o2jiz_U-12" edge="1">
          <mxGeometry relative="1" as="geometry">
            <mxPoint x="430" y="-40" as="sourcePoint" />
            <mxPoint x="690" y="300" as="targetPoint" />
          </mxGeometry>
        </mxCell>
        <mxCell id="jKe8y5UNzDwb2o2jiz_U-32" value="" style="edgeStyle=none;rounded=0;orthogonalLoop=1;jettySize=auto;html=1;endArrow=none;endFill=0;entryX=0;entryY=0.5;entryDx=0;entryDy=0;dashed=1;startArrow=classic;startFill=1;dashPattern=1 1;" parent="1" target="jKe8y5UNzDwb2o2jiz_U-13" edge="1">
          <mxGeometry relative="1" as="geometry">
            <mxPoint x="430" y="-40" as="sourcePoint" />
            <mxPoint x="565" y="-110" as="targetPoint" />
          </mxGeometry>
        </mxCell>
        <mxCell id="jKe8y5UNzDwb2o2jiz_U-33" value="" style="edgeStyle=none;rounded=0;orthogonalLoop=1;jettySize=auto;html=1;endArrow=none;endFill=0;entryX=0;entryY=0.5;entryDx=0;entryDy=0;dashed=1;startArrow=classic;startFill=1;exitX=1;exitY=0.5;exitDx=0;exitDy=0;dashPattern=1 1;" parent="1" source="jKe8y5UNzDwb2o2jiz_U-5" target="jKe8y5UNzDwb2o2jiz_U-30" edge="1">
          <mxGeometry relative="1" as="geometry">
            <mxPoint x="440" y="-30" as="sourcePoint" />
            <mxPoint x="565" y="-30" as="targetPoint" />
          </mxGeometry>
        </mxCell>
        <mxCell id="jKe8y5UNzDwb2o2jiz_U-34" value="" style="edgeStyle=none;rounded=0;orthogonalLoop=1;jettySize=auto;html=1;endArrow=classic;endFill=1;dashed=1;startArrow=classic;startFill=1;dashPattern=1 1;" parent="1" edge="1">
          <mxGeometry relative="1" as="geometry">
            <mxPoint x="750" y="220" as="sourcePoint" />
            <mxPoint x="830" y="220" as="targetPoint" />
          </mxGeometry>
        </mxCell>
        <mxCell id="jKe8y5UNzDwb2o2jiz_U-35" value="" style="edgeStyle=none;rounded=0;orthogonalLoop=1;jettySize=auto;html=1;endArrow=none;endFill=0;entryX=0;entryY=0.5;entryDx=0;entryDy=0;dashed=1;startArrow=classic;startFill=1;exitX=1;exitY=0.5;exitDx=0;exitDy=0;dashPattern=1 1;" parent="1" source="jKe8y5UNzDwb2o2jiz_U-6" target="jKe8y5UNzDwb2o2jiz_U-14" edge="1">
          <mxGeometry relative="1" as="geometry">
            <mxPoint x="427.5000000000001" y="70" as="sourcePoint" />
            <mxPoint x="552.5" y="140" as="targetPoint" />
          </mxGeometry>
        </mxCell>
        <mxCell id="jKe8y5UNzDwb2o2jiz_U-36" value="" style="edgeStyle=none;rounded=0;orthogonalLoop=1;jettySize=auto;html=1;endArrow=none;endFill=0;entryX=0;entryY=0.5;entryDx=0;entryDy=0;dashed=1;startArrow=classic;startFill=1;dashPattern=1 1;" parent="1" target="jKe8y5UNzDwb2o2jiz_U-15" edge="1">
          <mxGeometry relative="1" as="geometry">
            <mxPoint x="430" y="190" as="sourcePoint" />
            <mxPoint x="565" y="160" as="targetPoint" />
          </mxGeometry>
        </mxCell>
        <mxCell id="jKe8y5UNzDwb2o2jiz_U-37" value="" style="edgeStyle=none;rounded=0;orthogonalLoop=1;jettySize=auto;html=1;endArrow=classic;endFill=1;dashed=1;" parent="1" source="jKe8y5UNzDwb2o2jiz_U-38" target="jKe8y5UNzDwb2o2jiz_U-39" edge="1">
          <mxGeometry relative="1" as="geometry" />
        </mxCell>
        <mxCell id="jKe8y5UNzDwb2o2jiz_U-38" value="회원 로그인" style="rounded=1;whiteSpace=wrap;html=1;arcSize=40;fontColor=#000000;fillColor=#ffffc0;strokeColor=#ff0000;" parent="1" vertex="1">
          <mxGeometry x="230" y="330" width="120" height="40" as="geometry" />
        </mxCell>
        <mxCell id="jKe8y5UNzDwb2o2jiz_U-39" value="인증" style="rounded=1;whiteSpace=wrap;html=1;arcSize=34;fontColor=#000000;fillColor=#ffffc0;strokeColor=#ff0000;" parent="1" vertex="1">
          <mxGeometry x="390" y="330" width="120" height="40" as="geometry" />
        </mxCell>
        <mxCell id="jKe8y5UNzDwb2o2jiz_U-40" value="회원 로그인" style="rounded=1;whiteSpace=wrap;html=1;arcSize=40;fontColor=#000000;fillColor=#ffffc0;strokeColor=#ff0000;" parent="1" vertex="1">
          <mxGeometry x="230" y="393" width="120" height="40" as="geometry" />
        </mxCell>
        <mxCell id="jKe8y5UNzDwb2o2jiz_U-41" value="로그인 실패" style="rounded=1;whiteSpace=wrap;html=1;arcSize=40;fontColor=#000000;fillColor=#ffffc0;strokeColor=#ff0000;" parent="1" vertex="1">
          <mxGeometry x="390" y="393" width="120" height="40" as="geometry" />
        </mxCell>
        <mxCell id="jKe8y5UNzDwb2o2jiz_U-42" value="" style="edgeStyle=none;rounded=0;orthogonalLoop=1;jettySize=auto;html=1;endArrow=none;endFill=0;entryX=0;entryY=0.5;entryDx=0;entryDy=0;exitX=1;exitY=0.5;exitDx=0;exitDy=0;dashed=1;startArrow=classic;startFill=1;dashPattern=1 1;" parent="1" source="jKe8y5UNzDwb2o2jiz_U-40" target="jKe8y5UNzDwb2o2jiz_U-41" edge="1">
          <mxGeometry relative="1" as="geometry">
            <mxPoint x="430" y="523" as="sourcePoint" />
            <mxPoint x="510" y="523" as="targetPoint" />
          </mxGeometry>
        </mxCell>
        <mxCell id="jKe8y5UNzDwb2o2jiz_U-43" value="회원 로그인" style="rounded=1;whiteSpace=wrap;html=1;arcSize=40;fontColor=#000000;fillColor=#ffffc0;strokeColor=#ff0000;" parent="1" vertex="1">
          <mxGeometry x="230" y="458" width="120" height="40" as="geometry" />
        </mxCell>
        <mxCell id="jKe8y5UNzDwb2o2jiz_U-44" value="게시판 보기" style="rounded=1;whiteSpace=wrap;html=1;arcSize=40;fontColor=#000000;fillColor=#ffffc0;strokeColor=#ff0000;" parent="1" vertex="1">
          <mxGeometry x="390" y="458" width="120" height="40" as="geometry" />
        </mxCell>
        <mxCell id="jKe8y5UNzDwb2o2jiz_U-45" value="게시글 보기" style="rounded=1;whiteSpace=wrap;html=1;arcSize=40;fontColor=#000000;fillColor=#ffffc0;strokeColor=#ff0000;" parent="1" vertex="1">
          <mxGeometry x="390" y="513" width="120" height="40" as="geometry" />
        </mxCell>
        <mxCell id="jKe8y5UNzDwb2o2jiz_U-46" value="" style="rounded=0;orthogonalLoop=1;jettySize=auto;html=1;endArrow=classic;endFill=1;dashed=1;exitX=0;exitY=0.5;exitDx=0;exitDy=0;entryX=1;entryY=0.5;entryDx=0;entryDy=0;" parent="1" source="jKe8y5UNzDwb2o2jiz_U-44" target="jKe8y5UNzDwb2o2jiz_U-43" edge="1">
          <mxGeometry relative="1" as="geometry">
            <mxPoint x="320" y="708" as="sourcePoint" />
            <mxPoint x="470" y="498" as="targetPoint" />
          </mxGeometry>
        </mxCell>
        <mxCell id="jKe8y5UNzDwb2o2jiz_U-47" value="" style="rounded=0;orthogonalLoop=1;jettySize=auto;html=1;endArrow=classic;endFill=1;dashed=1;exitX=0;exitY=0.5;exitDx=0;exitDy=0;entryX=1;entryY=0.5;entryDx=0;entryDy=0;" parent="1" source="jKe8y5UNzDwb2o2jiz_U-45" target="jKe8y5UNzDwb2o2jiz_U-43" edge="1">
          <mxGeometry relative="1" as="geometry">
            <mxPoint x="400" y="488" as="sourcePoint" />
            <mxPoint x="360" y="488" as="targetPoint" />
          </mxGeometry>
        </mxCell>
        <mxCell id="jKe8y5UNzDwb2o2jiz_U-48" value="게시판 보기" style="rounded=1;whiteSpace=wrap;html=1;arcSize=40;fontColor=#000000;fillColor=#ffffc0;strokeColor=#ff0000;" parent="1" vertex="1">
          <mxGeometry x="220" y="630" width="120" height="40" as="geometry" />
        </mxCell>
        <mxCell id="jKe8y5UNzDwb2o2jiz_U-49" value="게시판 검색" style="rounded=1;whiteSpace=wrap;html=1;arcSize=40;fontColor=#000000;fillColor=#ffffc0;strokeColor=#ff0000;" parent="1" vertex="1">
          <mxGeometry x="390" y="630" width="120" height="40" as="geometry" />
        </mxCell>
        <mxCell id="jKe8y5UNzDwb2o2jiz_U-50" value="게시판 페이징" style="rounded=1;whiteSpace=wrap;html=1;arcSize=40;fontColor=#000000;fillColor=#ffffc0;strokeColor=#ff0000;" parent="1" vertex="1">
          <mxGeometry x="390" y="690" width="120" height="40" as="geometry" />
        </mxCell>
        <mxCell id="jKe8y5UNzDwb2o2jiz_U-51" value="" style="edgeStyle=none;rounded=0;orthogonalLoop=1;jettySize=auto;html=1;endArrow=none;endFill=0;entryX=0;entryY=0.5;entryDx=0;entryDy=0;dashed=1;startArrow=classic;startFill=1;dashPattern=1 1;" parent="1" target="jKe8y5UNzDwb2o2jiz_U-54" edge="1">
          <mxGeometry relative="1" as="geometry">
            <mxPoint x="340" y="650" as="sourcePoint" />
            <mxPoint x="462.5" y="580" as="targetPoint" />
          </mxGeometry>
        </mxCell>
        <mxCell id="jKe8y5UNzDwb2o2jiz_U-52" value="" style="edgeStyle=none;rounded=0;orthogonalLoop=1;jettySize=auto;html=1;endArrow=none;endFill=0;entryX=0;entryY=0.5;entryDx=0;entryDy=0;dashed=1;startArrow=classic;startFill=1;dashPattern=1 1;exitX=1;exitY=0.5;exitDx=0;exitDy=0;" parent="1" source="jKe8y5UNzDwb2o2jiz_U-48" target="jKe8y5UNzDwb2o2jiz_U-49" edge="1">
          <mxGeometry relative="1" as="geometry">
            <mxPoint x="337.5" y="660" as="sourcePoint" />
            <mxPoint x="472.5" y="590" as="targetPoint" />
          </mxGeometry>
        </mxCell>
        <mxCell id="jKe8y5UNzDwb2o2jiz_U-53" value="" style="edgeStyle=none;rounded=0;orthogonalLoop=1;jettySize=auto;html=1;endArrow=none;endFill=0;entryX=0;entryY=0.5;entryDx=0;entryDy=0;dashed=1;startArrow=classic;startFill=1;dashPattern=1 1;" parent="1" target="jKe8y5UNzDwb2o2jiz_U-50" edge="1">
          <mxGeometry relative="1" as="geometry">
            <mxPoint x="340" y="650" as="sourcePoint" />
            <mxPoint x="472.5" y="670" as="targetPoint" />
          </mxGeometry>
        </mxCell>
        <mxCell id="jKe8y5UNzDwb2o2jiz_U-54" value="게시판 정렬" style="rounded=1;whiteSpace=wrap;html=1;arcSize=40;fontColor=#000000;fillColor=#ffffc0;strokeColor=#ff0000;" parent="1" vertex="1">
          <mxGeometry x="390" y="570" width="120" height="40" as="geometry" />
        </mxCell>
        <mxCell id="jKe8y5UNzDwb2o2jiz_U-55" value="&lt;span style=&quot;text-align: center;&quot;&gt;포함관계 &amp;lt;&amp;lt;include&amp;gt;&amp;gt;&lt;/span&gt;&lt;br&gt;- 게시판 정렬, 검색, 페이징 기능은 게시판 보기 기능에서 파생되었다." style="text;html=1;strokeColor=none;fillColor=none;align=left;verticalAlign=middle;whiteSpace=wrap;rounded=0;" parent="1" vertex="1">
          <mxGeometry x="530" y="635" width="340" height="30" as="geometry" />
        </mxCell>
        <mxCell id="jKe8y5UNzDwb2o2jiz_U-56" value="게시글 보기" style="rounded=1;whiteSpace=wrap;html=1;arcSize=40;fontColor=#000000;fillColor=#ffffc0;strokeColor=#ff0000;" parent="1" vertex="1">
          <mxGeometry x="220" y="780" width="120" height="40" as="geometry" />
        </mxCell>
        <mxCell id="jKe8y5UNzDwb2o2jiz_U-57" value="게시글 &lt;br&gt;쓰기/수정/삭제" style="rounded=1;whiteSpace=wrap;html=1;arcSize=40;fontColor=#000000;fillColor=#ffffc0;strokeColor=#ff0000;" parent="1" vertex="1">
          <mxGeometry x="390" y="750" width="120" height="40" as="geometry" />
        </mxCell>
        <mxCell id="jKe8y5UNzDwb2o2jiz_U-58" value="댓글 &lt;br&gt;보기/쓰기/수정/삭제" style="rounded=1;whiteSpace=wrap;html=1;arcSize=40;fontColor=#000000;fillColor=#ffffc0;strokeColor=#ff0000;" parent="1" vertex="1">
          <mxGeometry x="390" y="810" width="120" height="40" as="geometry" />
        </mxCell>
        <mxCell id="jKe8y5UNzDwb2o2jiz_U-59" value="" style="edgeStyle=none;rounded=0;orthogonalLoop=1;jettySize=auto;html=1;endArrow=none;endFill=0;entryX=0;entryY=0.5;entryDx=0;entryDy=0;dashed=1;startArrow=classic;startFill=1;exitX=1;exitY=0.5;exitDx=0;exitDy=0;dashPattern=1 1;" parent="1" source="jKe8y5UNzDwb2o2jiz_U-56" target="jKe8y5UNzDwb2o2jiz_U-57" edge="1">
          <mxGeometry relative="1" as="geometry">
            <mxPoint x="262.5000000000001" y="700" as="sourcePoint" />
            <mxPoint x="387.5" y="770" as="targetPoint" />
          </mxGeometry>
        </mxCell>
        <mxCell id="jKe8y5UNzDwb2o2jiz_U-60" value="" style="edgeStyle=none;rounded=0;orthogonalLoop=1;jettySize=auto;html=1;endArrow=none;endFill=0;entryX=0;entryY=0.5;entryDx=0;entryDy=0;dashed=1;startArrow=classic;startFill=1;dashPattern=1 1;exitX=1;exitY=0.5;exitDx=0;exitDy=0;" parent="1" source="jKe8y5UNzDwb2o2jiz_U-56" target="jKe8y5UNzDwb2o2jiz_U-58" edge="1">
          <mxGeometry relative="1" as="geometry">
            <mxPoint x="265" y="820" as="sourcePoint" />
            <mxPoint x="400" y="790" as="targetPoint" />
          </mxGeometry>
        </mxCell>
        <mxCell id="jKe8y5UNzDwb2o2jiz_U-61" value="&lt;span style=&quot;text-align: center;&quot;&gt;포함관계 &amp;lt;&amp;lt;include&amp;gt;&amp;gt;&lt;/span&gt;&lt;br&gt;- 게시글 쓰기/수정/삭제 기능은 게시글 보기 기능에서 파생되었다.&lt;br&gt;- 댓글 보기/쓰기/수정/삭제 기능은 게시글 보기 기능에서 파생되었다." style="text;html=1;strokeColor=none;fillColor=none;align=left;verticalAlign=middle;whiteSpace=wrap;rounded=0;" parent="1" vertex="1">
          <mxGeometry x="525" y="765" width="340" height="45" as="geometry" />
        </mxCell>
        <mxCell id="jKe8y5UNzDwb2o2jiz_U-62" value="DB" style="html=1;dropTarget=0;" parent="1" vertex="1">
          <mxGeometry x="1000" y="-180" width="100" height="80" as="geometry" />
        </mxCell>
        <mxCell id="jKe8y5UNzDwb2o2jiz_U-63" style="rounded=0;orthogonalLoop=1;jettySize=auto;html=1;endArrow=none;endFill=0;" parent="1" edge="1">
          <mxGeometry relative="1" as="geometry">
            <mxPoint x="830" y="264.5" as="sourcePoint" />
            <mxPoint x="750" y="264.5" as="targetPoint" />
          </mxGeometry>
        </mxCell>
        <mxCell id="jKe8y5UNzDwb2o2jiz_U-64" value="연관관계" style="text;html=1;strokeColor=none;fillColor=none;align=center;verticalAlign=middle;whiteSpace=wrap;rounded=0;" parent="1" vertex="1">
          <mxGeometry x="850" y="250" width="60" height="30" as="geometry" />
        </mxCell>
        <mxCell id="jKe8y5UNzDwb2o2jiz_U-65" value="" style="edgeStyle=none;rounded=0;orthogonalLoop=1;jettySize=auto;html=1;endArrow=none;endFill=0;entryX=1;entryY=0.5;entryDx=0;entryDy=0;exitX=0;exitY=0.5;exitDx=0;exitDy=0;" parent="1" source="jKe8y5UNzDwb2o2jiz_U-62" target="jKe8y5UNzDwb2o2jiz_U-9" edge="1">
          <mxGeometry relative="1" as="geometry">
            <mxPoint x="980" y="-190" as="sourcePoint" />
            <mxPoint x="980" y="-260" as="targetPoint" />
          </mxGeometry>
        </mxCell>
        <mxCell id="jKe8y5UNzDwb2o2jiz_U-66" value="" style="edgeStyle=none;rounded=0;orthogonalLoop=1;jettySize=auto;html=1;endArrow=none;endFill=0;exitX=0;exitY=0.5;exitDx=0;exitDy=0;entryX=1.003;entryY=0.475;entryDx=0;entryDy=0;entryPerimeter=0;" parent="1" source="jKe8y5UNzDwb2o2jiz_U-62" target="jKe8y5UNzDwb2o2jiz_U-5" edge="1">
          <mxGeometry relative="1" as="geometry">
            <mxPoint x="1000" y="-140" as="sourcePoint" />
            <mxPoint x="440" y="-40" as="targetPoint" />
          </mxGeometry>
        </mxCell>
        <mxCell id="jKe8y5UNzDwb2o2jiz_U-67" value="" style="edgeStyle=none;rounded=0;orthogonalLoop=1;jettySize=auto;html=1;endArrow=none;endFill=0;" parent="1" edge="1">
          <mxGeometry relative="1" as="geometry">
            <mxPoint x="1000" y="-140" as="sourcePoint" />
            <mxPoint x="430" y="190" as="targetPoint" />
          </mxGeometry>
        </mxCell>
        <mxCell id="jKe8y5UNzDwb2o2jiz_U-68" value="" style="edgeStyle=none;rounded=0;orthogonalLoop=1;jettySize=auto;html=1;endArrow=none;endFill=0;entryX=1;entryY=0.5;entryDx=0;entryDy=0;" parent="1" target="jKe8y5UNzDwb2o2jiz_U-14" edge="1">
          <mxGeometry relative="1" as="geometry">
            <mxPoint x="1000" y="-140" as="sourcePoint" />
            <mxPoint x="440" y="200" as="targetPoint" />
          </mxGeometry>
        </mxCell>
        <mxCell id="jKe8y5UNzDwb2o2jiz_U-69" value="" style="edgeStyle=none;rounded=0;orthogonalLoop=1;jettySize=auto;html=1;endArrow=none;endFill=0;entryX=1;entryY=0.5;entryDx=0;entryDy=0;" parent="1" target="jKe8y5UNzDwb2o2jiz_U-15" edge="1">
          <mxGeometry relative="1" as="geometry">
            <mxPoint x="1000" y="-140" as="sourcePoint" />
            <mxPoint x="685" y="160" as="targetPoint" />
          </mxGeometry>
        </mxCell>
        <mxCell id="7mgR1uhwt8N3qkhqVopb-1" value="&lt;font style=&quot;font-size: 40px;&quot;&gt;v1.0&lt;/font&gt;" style="text;html=1;strokeColor=none;fillColor=none;align=center;verticalAlign=middle;whiteSpace=wrap;rounded=0;" parent="1" vertex="1">
          <mxGeometry x="230" y="-420" width="60" height="30" as="geometry" />
        </mxCell>
        <mxCell id="7mgR1uhwt8N3qkhqVopb-3" value="&lt;font style=&quot;font-size: 40px;&quot;&gt;v2.0&lt;/font&gt;" style="text;html=1;strokeColor=none;fillColor=none;align=center;verticalAlign=middle;whiteSpace=wrap;rounded=0;" parent="1" vertex="1">
          <mxGeometry x="1200" y="-420" width="110" height="30" as="geometry" />
        </mxCell>
        <mxCell id="7mgR1uhwt8N3qkhqVopb-4" value="이용자" style="shape=umlActor;verticalLabelPosition=bottom;verticalAlign=top;html=1;" parent="1" vertex="1">
          <mxGeometry x="1241" y="125" width="30" height="60" as="geometry" />
        </mxCell>
        <mxCell id="7mgR1uhwt8N3qkhqVopb-5" value="게시판 서비스" style="shape=umlFrame;whiteSpace=wrap;html=1;width=150;height=30;" parent="1" vertex="1">
          <mxGeometry x="1200" y="-352.5" width="1340" height="1222.5" as="geometry" />
        </mxCell>
        <mxCell id="7mgR1uhwt8N3qkhqVopb-6" style="rounded=0;orthogonalLoop=1;jettySize=auto;html=1;entryX=1;entryY=0.3333333333333333;entryDx=0;entryDy=0;entryPerimeter=0;exitX=0;exitY=0.5;exitDx=0;exitDy=0;endArrow=none;endFill=0;edgeStyle=orthogonalEdgeStyle;" parent="1" source="7mgR1uhwt8N3qkhqVopb-7" target="7mgR1uhwt8N3qkhqVopb-4" edge="1">
          <mxGeometry relative="1" as="geometry">
            <Array as="points">
              <mxPoint x="1340" y="-260" />
              <mxPoint x="1340" y="145" />
            </Array>
          </mxGeometry>
        </mxCell>
        <mxCell id="7mgR1uhwt8N3qkhqVopb-7" value="일반 회원가입" style="rounded=1;whiteSpace=wrap;html=1;arcSize=40;fontColor=#000000;fillColor=#ffffc0;strokeColor=#ff0000;" parent="1" vertex="1">
          <mxGeometry x="1411" y="-280" width="120" height="40" as="geometry" />
        </mxCell>
        <mxCell id="7mgR1uhwt8N3qkhqVopb-9" value="게시글 보기" style="rounded=1;whiteSpace=wrap;html=1;arcSize=40;fontColor=#000000;fillColor=#ffffc0;strokeColor=#ff0000;" parent="1" vertex="1">
          <mxGeometry x="1840" y="340" width="120" height="40" as="geometry" />
        </mxCell>
        <mxCell id="7mgR1uhwt8N3qkhqVopb-11" value="회원 로그인" style="rounded=1;whiteSpace=wrap;html=1;arcSize=40;fontColor=#000000;fillColor=#ffffc0;strokeColor=#ff0000;" parent="1" vertex="1">
          <mxGeometry x="1411" y="-90" width="120" height="40" as="geometry" />
        </mxCell>
        <mxCell id="7mgR1uhwt8N3qkhqVopb-12" value="DB 인증" style="rounded=1;whiteSpace=wrap;html=1;arcSize=34;fontColor=#000000;fillColor=#ffffc0;strokeColor=#ff0000;" parent="1" vertex="1">
          <mxGeometry x="1840" y="-210" width="120" height="40" as="geometry" />
        </mxCell>
        <mxCell id="7mgR1uhwt8N3qkhqVopb-14" value="인증 실패" style="rounded=1;whiteSpace=wrap;html=1;arcSize=40;fontColor=#000000;fillColor=#ffffc0;strokeColor=#ff0000;" parent="1" vertex="1">
          <mxGeometry x="1840" y="-100" width="120" height="40" as="geometry" />
        </mxCell>
        <mxCell id="7mgR1uhwt8N3qkhqVopb-17" value="게시글 &lt;br&gt;수정/삭제" style="rounded=1;whiteSpace=wrap;html=1;arcSize=40;fontColor=#000000;fillColor=#ffffc0;strokeColor=#ff0000;" parent="1" vertex="1">
          <mxGeometry x="2067" y="410" width="120" height="40" as="geometry" />
        </mxCell>
        <mxCell id="7mgR1uhwt8N3qkhqVopb-18" value="댓글 보기" style="rounded=1;whiteSpace=wrap;html=1;arcSize=40;fontColor=#000000;fillColor=#ffffc0;strokeColor=#ff0000;" parent="1" vertex="1">
          <mxGeometry x="2067" y="498" width="120" height="40" as="geometry" />
        </mxCell>
        <mxCell id="7mgR1uhwt8N3qkhqVopb-19" style="edgeStyle=none;rounded=0;orthogonalLoop=1;jettySize=auto;html=1;exitX=0.5;exitY=1;exitDx=0;exitDy=0;" parent="1" source="7mgR1uhwt8N3qkhqVopb-11" target="7mgR1uhwt8N3qkhqVopb-11" edge="1">
          <mxGeometry relative="1" as="geometry" />
        </mxCell>
        <mxCell id="7mgR1uhwt8N3qkhqVopb-20" style="rounded=0;orthogonalLoop=1;jettySize=auto;html=1;exitX=0;exitY=0.5;exitDx=0;exitDy=0;endArrow=none;endFill=0;edgeStyle=orthogonalEdgeStyle;" parent="1" source="7mgR1uhwt8N3qkhqVopb-11" edge="1">
          <mxGeometry relative="1" as="geometry">
            <mxPoint x="1391" y="105" as="sourcePoint" />
            <mxPoint x="1271" y="145" as="targetPoint" />
            <Array as="points">
              <mxPoint x="1340" y="-70" />
              <mxPoint x="1340" y="145" />
            </Array>
          </mxGeometry>
        </mxCell>
        <mxCell id="7mgR1uhwt8N3qkhqVopb-21" style="rounded=0;orthogonalLoop=1;jettySize=auto;html=1;exitX=0;exitY=0.5;exitDx=0;exitDy=0;endArrow=none;endFill=0;edgeStyle=orthogonalEdgeStyle;" parent="1" source="7mgR1uhwt8N3qkhqVopb-8" edge="1">
          <mxGeometry relative="1" as="geometry">
            <mxPoint x="1421" y="155" as="sourcePoint" />
            <mxPoint x="1271" y="145" as="targetPoint" />
            <Array as="points">
              <mxPoint x="1340" y="195" />
              <mxPoint x="1340" y="145" />
            </Array>
          </mxGeometry>
        </mxCell>
        <mxCell id="7mgR1uhwt8N3qkhqVopb-24" value="" style="edgeStyle=none;rounded=0;orthogonalLoop=1;jettySize=auto;html=1;endArrow=classic;endFill=1;dashed=1;startArrow=classic;startFill=1;" parent="1" edge="1">
          <mxGeometry relative="1" as="geometry">
            <mxPoint x="2360" y="754.4700000000003" as="sourcePoint" />
            <mxPoint x="2440" y="754.4700000000003" as="targetPoint" />
          </mxGeometry>
        </mxCell>
        <mxCell id="7mgR1uhwt8N3qkhqVopb-25" value="포함관계 &amp;lt;&amp;lt;include&amp;gt;&amp;gt;" style="text;html=1;strokeColor=none;fillColor=none;align=center;verticalAlign=middle;whiteSpace=wrap;rounded=0;" parent="1" vertex="1">
          <mxGeometry x="2460" y="740" width="60" height="30" as="geometry" />
        </mxCell>
        <mxCell id="7mgR1uhwt8N3qkhqVopb-26" value="확장관계 &amp;lt;&amp;lt;include&amp;gt;&amp;gt;" style="text;html=1;strokeColor=none;fillColor=none;align=center;verticalAlign=middle;whiteSpace=wrap;rounded=0;" parent="1" vertex="1">
          <mxGeometry x="2460" y="790" width="60" height="30" as="geometry" />
        </mxCell>
        <mxCell id="7mgR1uhwt8N3qkhqVopb-34" value="" style="edgeStyle=none;rounded=0;orthogonalLoop=1;jettySize=auto;html=1;endArrow=classic;endFill=1;startArrow=classic;startFill=1;" parent="1" edge="1">
          <mxGeometry relative="1" as="geometry">
            <mxPoint x="2360" y="800" as="sourcePoint" />
            <mxPoint x="2440" y="800" as="targetPoint" />
          </mxGeometry>
        </mxCell>
        <mxCell id="7mgR1uhwt8N3qkhqVopb-37" value="DB" style="html=1;dropTarget=0;" parent="1" vertex="1">
          <mxGeometry x="2381" y="260" width="100" height="80" as="geometry" />
        </mxCell>
        <mxCell id="7mgR1uhwt8N3qkhqVopb-38" style="rounded=0;orthogonalLoop=1;jettySize=auto;html=1;endArrow=none;endFill=0;" parent="1" edge="1">
          <mxGeometry relative="1" as="geometry">
            <mxPoint x="2440" y="844.5" as="sourcePoint" />
            <mxPoint x="2360" y="844.5" as="targetPoint" />
          </mxGeometry>
        </mxCell>
        <mxCell id="7mgR1uhwt8N3qkhqVopb-39" value="연관관계" style="text;html=1;strokeColor=none;fillColor=none;align=center;verticalAlign=middle;whiteSpace=wrap;rounded=0;" parent="1" vertex="1">
          <mxGeometry x="2460" y="830" width="60" height="30" as="geometry" />
        </mxCell>
        <mxCell id="7mgR1uhwt8N3qkhqVopb-46" value="&amp;lt;&amp;lt;포함관계&amp;gt;&amp;gt;" style="edgeStyle=none;rounded=0;orthogonalLoop=1;jettySize=auto;html=1;endArrow=classic;endFill=1;dashed=1;exitX=1;exitY=0.5;exitDx=0;exitDy=0;entryX=0;entryY=0.5;entryDx=0;entryDy=0;" parent="1" source="7mgR1uhwt8N3qkhqVopb-55" target="7mgR1uhwt8N3qkhqVopb-12" edge="1">
          <mxGeometry relative="1" as="geometry">
            <mxPoint x="1740" y="-130" as="sourcePoint" />
            <mxPoint x="1779" y="-140" as="targetPoint" />
          </mxGeometry>
        </mxCell>
        <mxCell id="7mgR1uhwt8N3qkhqVopb-47" value="&amp;lt;&amp;lt;포함관계&amp;gt;&amp;gt;" style="edgeStyle=none;rounded=0;orthogonalLoop=1;jettySize=auto;html=1;endArrow=classic;endFill=1;dashed=1;exitX=0;exitY=0.5;exitDx=0;exitDy=0;entryX=1.005;entryY=0.54;entryDx=0;entryDy=0;entryPerimeter=0;" parent="1" source="7mgR1uhwt8N3qkhqVopb-14" target="7mgR1uhwt8N3qkhqVopb-55" edge="1">
          <mxGeometry x="-0.0004" relative="1" as="geometry">
            <mxPoint x="1750" y="-120" as="sourcePoint" />
            <mxPoint x="1740" y="-130" as="targetPoint" />
            <mxPoint as="offset" />
          </mxGeometry>
        </mxCell>
        <mxCell id="7mgR1uhwt8N3qkhqVopb-49" style="rounded=0;orthogonalLoop=1;jettySize=auto;html=1;exitX=0;exitY=0.5;exitDx=0;exitDy=0;endArrow=none;endFill=0;entryX=1;entryY=0.5;entryDx=0;entryDy=0;edgeStyle=orthogonalEdgeStyle;" parent="1" source="7mgR1uhwt8N3qkhqVopb-37" target="7mgR1uhwt8N3qkhqVopb-12" edge="1">
          <mxGeometry relative="1" as="geometry">
            <mxPoint x="1916" y="-170" as="sourcePoint" />
            <mxPoint x="1776" y="45" as="targetPoint" />
            <Array as="points">
              <mxPoint x="2240" y="300" />
              <mxPoint x="2240" y="-190" />
            </Array>
          </mxGeometry>
        </mxCell>
        <mxCell id="7mgR1uhwt8N3qkhqVopb-50" style="rounded=0;orthogonalLoop=1;jettySize=auto;html=1;exitX=0.5;exitY=0;exitDx=0;exitDy=0;endArrow=none;endFill=0;entryX=0.5;entryY=1;entryDx=0;entryDy=0;" parent="1" source="7mgR1uhwt8N3qkhqVopb-14" target="7mgR1uhwt8N3qkhqVopb-12" edge="1">
          <mxGeometry relative="1" as="geometry">
            <mxPoint x="2289" y="35" as="sourcePoint" />
            <mxPoint x="1970" y="-180" as="targetPoint" />
          </mxGeometry>
        </mxCell>
        <mxCell id="7mgR1uhwt8N3qkhqVopb-51" value="일반 게시판" style="rounded=1;whiteSpace=wrap;html=1;arcSize=40;fontColor=#000000;fillColor=#ffffc0;strokeColor=#ff0000;" parent="1" vertex="1">
          <mxGeometry x="1620" y="100" width="120" height="40" as="geometry" />
        </mxCell>
        <mxCell id="7mgR1uhwt8N3qkhqVopb-52" value="해시태그 게시판" style="rounded=1;whiteSpace=wrap;html=1;arcSize=40;fontColor=#000000;fillColor=#ffffc0;strokeColor=#ff0000;" parent="1" vertex="1">
          <mxGeometry x="1620" y="240" width="120" height="40" as="geometry" />
        </mxCell>
        <mxCell id="7mgR1uhwt8N3qkhqVopb-53" value="대댓글 보기" style="rounded=1;whiteSpace=wrap;html=1;arcSize=40;fontColor=#000000;fillColor=#ffffc0;strokeColor=#ff0000;" parent="1" vertex="1">
          <mxGeometry x="2067" y="673" width="120" height="40" as="geometry" />
        </mxCell>
        <mxCell id="7mgR1uhwt8N3qkhqVopb-55" value="일반 계정" style="rounded=1;whiteSpace=wrap;html=1;arcSize=40;fontColor=#000000;fillColor=#ffffc0;strokeColor=#ff0000;" parent="1" vertex="1">
          <mxGeometry x="1620" y="-150" width="120" height="40" as="geometry" />
        </mxCell>
        <mxCell id="7mgR1uhwt8N3qkhqVopb-59" value="" style="edgeStyle=none;rounded=0;orthogonalLoop=1;jettySize=auto;html=1;endArrow=none;endFill=0;startArrow=classic;startFill=1;entryX=0;entryY=0.5;entryDx=0;entryDy=0;exitX=1;exitY=0.5;exitDx=0;exitDy=0;" parent="1" source="7mgR1uhwt8N3qkhqVopb-11" target="7mgR1uhwt8N3qkhqVopb-61" edge="1">
          <mxGeometry relative="1" as="geometry">
            <mxPoint x="1560" y="45" as="sourcePoint" />
            <mxPoint x="1640" y="45" as="targetPoint" />
          </mxGeometry>
        </mxCell>
        <mxCell id="7mgR1uhwt8N3qkhqVopb-65" value="&amp;lt;&amp;lt;확장관계&amp;gt;&amp;gt;" style="edgeLabel;html=1;align=center;verticalAlign=middle;resizable=0;points=[];" parent="7mgR1uhwt8N3qkhqVopb-59" vertex="1" connectable="0">
          <mxGeometry x="0.1004" y="5" relative="1" as="geometry">
            <mxPoint as="offset" />
          </mxGeometry>
        </mxCell>
        <mxCell id="7mgR1uhwt8N3qkhqVopb-61" value="소셜 계정&lt;br&gt;(kakao,naver,google)" style="rounded=1;whiteSpace=wrap;html=1;arcSize=40;fontColor=#000000;fillColor=#ffffc0;strokeColor=#ff0000;" parent="1" vertex="1">
          <mxGeometry x="1620" y="-40" width="120" height="40" as="geometry" />
        </mxCell>
        <mxCell id="7mgR1uhwt8N3qkhqVopb-63" value="" style="edgeStyle=none;rounded=0;orthogonalLoop=1;jettySize=auto;html=1;endArrow=none;endFill=0;startArrow=classic;startFill=1;entryX=0;entryY=0.5;entryDx=0;entryDy=0;exitX=1;exitY=0.5;exitDx=0;exitDy=0;" parent="1" source="7mgR1uhwt8N3qkhqVopb-11" target="7mgR1uhwt8N3qkhqVopb-55" edge="1">
          <mxGeometry relative="1" as="geometry">
            <mxPoint x="1541" y="-60" as="sourcePoint" />
            <mxPoint x="1630" y="-10" as="targetPoint" />
          </mxGeometry>
        </mxCell>
        <mxCell id="7mgR1uhwt8N3qkhqVopb-64" value="&amp;lt;&amp;lt;확장관계&amp;gt;&amp;gt;" style="edgeLabel;html=1;align=center;verticalAlign=middle;resizable=0;points=[];" parent="7mgR1uhwt8N3qkhqVopb-63" vertex="1" connectable="0">
          <mxGeometry x="0.0496" y="3" relative="1" as="geometry">
            <mxPoint as="offset" />
          </mxGeometry>
        </mxCell>
        <mxCell id="7mgR1uhwt8N3qkhqVopb-66" style="rounded=0;orthogonalLoop=1;jettySize=auto;html=1;exitX=0;exitY=0.5;exitDx=0;exitDy=0;endArrow=none;endFill=0;entryX=1;entryY=0.5;entryDx=0;entryDy=0;edgeStyle=orthogonalEdgeStyle;" parent="1" source="7mgR1uhwt8N3qkhqVopb-37" target="7mgR1uhwt8N3qkhqVopb-7" edge="1">
          <mxGeometry relative="1" as="geometry">
            <mxPoint x="2200" y="-195" as="sourcePoint" />
            <mxPoint x="1890" y="-345" as="targetPoint" />
            <Array as="points">
              <mxPoint x="2240" y="300" />
              <mxPoint x="2240" y="-260" />
            </Array>
          </mxGeometry>
        </mxCell>
        <mxCell id="7mgR1uhwt8N3qkhqVopb-67" value="" style="edgeStyle=none;rounded=0;orthogonalLoop=1;jettySize=auto;html=1;endArrow=none;endFill=0;startArrow=classic;startFill=1;entryX=0;entryY=0.5;entryDx=0;entryDy=0;exitX=1;exitY=0.5;exitDx=0;exitDy=0;" parent="1" source="7mgR1uhwt8N3qkhqVopb-8" target="7mgR1uhwt8N3qkhqVopb-52" edge="1">
          <mxGeometry relative="1" as="geometry">
            <mxPoint x="1520" y="215" as="sourcePoint" />
            <mxPoint x="1609" y="265" as="targetPoint" />
          </mxGeometry>
        </mxCell>
        <mxCell id="7mgR1uhwt8N3qkhqVopb-68" value="&amp;lt;&amp;lt;확장관계&amp;gt;&amp;gt;" style="edgeLabel;html=1;align=center;verticalAlign=middle;resizable=0;points=[];" parent="7mgR1uhwt8N3qkhqVopb-67" vertex="1" connectable="0">
          <mxGeometry x="0.1004" y="5" relative="1" as="geometry">
            <mxPoint as="offset" />
          </mxGeometry>
        </mxCell>
        <mxCell id="7mgR1uhwt8N3qkhqVopb-69" value="" style="edgeStyle=none;rounded=0;orthogonalLoop=1;jettySize=auto;html=1;endArrow=none;endFill=0;startArrow=classic;startFill=1;entryX=0;entryY=0.5;entryDx=0;entryDy=0;exitX=1;exitY=0.5;exitDx=0;exitDy=0;" parent="1" source="7mgR1uhwt8N3qkhqVopb-8" target="7mgR1uhwt8N3qkhqVopb-51" edge="1">
          <mxGeometry relative="1" as="geometry">
            <mxPoint x="1541" y="205" as="sourcePoint" />
            <mxPoint x="1630" y="240" as="targetPoint" />
          </mxGeometry>
        </mxCell>
        <mxCell id="7mgR1uhwt8N3qkhqVopb-70" value="&amp;lt;&amp;lt;확장관계&amp;gt;&amp;gt;" style="edgeLabel;html=1;align=center;verticalAlign=middle;resizable=0;points=[];" parent="7mgR1uhwt8N3qkhqVopb-69" vertex="1" connectable="0">
          <mxGeometry x="0.1004" y="5" relative="1" as="geometry">
            <mxPoint as="offset" />
          </mxGeometry>
        </mxCell>
        <mxCell id="7mgR1uhwt8N3qkhqVopb-77" value="" style="edgeStyle=orthogonalEdgeStyle;rounded=0;orthogonalLoop=1;jettySize=auto;html=1;" parent="1" source="7mgR1uhwt8N3qkhqVopb-71" target="7mgR1uhwt8N3qkhqVopb-51" edge="1">
          <mxGeometry relative="1" as="geometry" />
        </mxCell>
        <mxCell id="7mgR1uhwt8N3qkhqVopb-71" value="게시글 쓰기" style="rounded=1;whiteSpace=wrap;html=1;arcSize=40;fontColor=#000000;fillColor=#ffffc0;strokeColor=#ff0000;" parent="1" vertex="1">
          <mxGeometry x="1840" y="100" width="120" height="40" as="geometry" />
        </mxCell>
        <mxCell id="7mgR1uhwt8N3qkhqVopb-72" value="&amp;lt;&amp;lt;포함관계&amp;gt;&amp;gt;" style="edgeStyle=orthogonalEdgeStyle;rounded=0;orthogonalLoop=1;jettySize=auto;html=1;endArrow=classic;endFill=1;dashed=1;exitX=0;exitY=0.5;exitDx=0;exitDy=0;entryX=0.5;entryY=1;entryDx=0;entryDy=0;" parent="1" source="7mgR1uhwt8N3qkhqVopb-71" target="7mgR1uhwt8N3qkhqVopb-11" edge="1">
          <mxGeometry x="-0.0004" relative="1" as="geometry">
            <mxPoint x="1809" y="28" as="sourcePoint" />
            <mxPoint x="1710" y="-20" as="targetPoint" />
            <mxPoint as="offset" />
            <Array as="points">
              <mxPoint x="1840" y="60" />
              <mxPoint x="1471" y="60" />
            </Array>
          </mxGeometry>
        </mxCell>
        <mxCell id="7mgR1uhwt8N3qkhqVopb-73" value="&amp;lt;&amp;lt;확장관계&amp;gt;&amp;gt;" style="edgeStyle=none;rounded=0;orthogonalLoop=1;jettySize=auto;html=1;endArrow=classic;endFill=1;dashed=1;exitX=0;exitY=0.5;exitDx=0;exitDy=0;entryX=1;entryY=0.5;entryDx=0;entryDy=0;" parent="1" source="7mgR1uhwt8N3qkhqVopb-71" target="7mgR1uhwt8N3qkhqVopb-51" edge="1">
          <mxGeometry x="-0.0004" relative="1" as="geometry">
            <mxPoint x="1840" y="188" as="sourcePoint" />
            <mxPoint x="1741" y="140" as="targetPoint" />
            <mxPoint as="offset" />
          </mxGeometry>
        </mxCell>
        <mxCell id="7mgR1uhwt8N3qkhqVopb-74" value="게시판 &lt;br&gt;(페이징, 정렬, 검색, &lt;br&gt;n개씩 보기)" style="rounded=1;whiteSpace=wrap;html=1;arcSize=40;fontColor=#000000;fillColor=#ffffc0;strokeColor=#ff0000;" parent="1" vertex="1">
          <mxGeometry x="1840" y="240" width="120" height="40" as="geometry" />
        </mxCell>
        <mxCell id="7mgR1uhwt8N3qkhqVopb-78" value="&amp;lt;&amp;lt;확장관계&amp;gt;&amp;gt;" style="edgeStyle=orthogonalEdgeStyle;rounded=0;orthogonalLoop=1;jettySize=auto;html=1;endArrow=classic;endFill=1;exitX=0;exitY=0.5;exitDx=0;exitDy=0;entryX=0.5;entryY=1;entryDx=0;entryDy=0;" parent="1" source="7mgR1uhwt8N3qkhqVopb-74" target="7mgR1uhwt8N3qkhqVopb-51" edge="1">
          <mxGeometry x="0.0714" relative="1" as="geometry">
            <mxPoint x="1989" y="525" as="sourcePoint" />
            <mxPoint x="1620" y="355" as="targetPoint" />
            <mxPoint as="offset" />
            <Array as="points">
              <mxPoint x="1830" y="260" />
              <mxPoint x="1830" y="190" />
              <mxPoint x="1680" y="190" />
            </Array>
          </mxGeometry>
        </mxCell>
        <mxCell id="7mgR1uhwt8N3qkhqVopb-79" value="&amp;lt;&amp;lt;확장관계&amp;gt;&amp;gt;" style="edgeStyle=none;rounded=0;orthogonalLoop=1;jettySize=auto;html=1;endArrow=classic;endFill=1;exitX=0;exitY=0.5;exitDx=0;exitDy=0;entryX=1;entryY=0.5;entryDx=0;entryDy=0;" parent="1" source="7mgR1uhwt8N3qkhqVopb-74" target="7mgR1uhwt8N3qkhqVopb-52" edge="1">
          <mxGeometry x="-0.0004" relative="1" as="geometry">
            <mxPoint x="1820" y="330" as="sourcePoint" />
            <mxPoint x="1720" y="330" as="targetPoint" />
            <mxPoint as="offset" />
          </mxGeometry>
        </mxCell>
        <mxCell id="7mgR1uhwt8N3qkhqVopb-80" style="rounded=0;orthogonalLoop=1;jettySize=auto;html=1;exitX=0;exitY=0.5;exitDx=0;exitDy=0;endArrow=none;endFill=0;entryX=1;entryY=0.5;entryDx=0;entryDy=0;edgeStyle=orthogonalEdgeStyle;" parent="1" source="7mgR1uhwt8N3qkhqVopb-37" target="7mgR1uhwt8N3qkhqVopb-71" edge="1">
          <mxGeometry relative="1" as="geometry">
            <mxPoint x="2889" y="690" as="sourcePoint" />
            <mxPoint x="2110" y="350" as="targetPoint" />
            <Array as="points">
              <mxPoint x="2240" y="300" />
              <mxPoint x="2240" y="120" />
            </Array>
          </mxGeometry>
        </mxCell>
        <mxCell id="7mgR1uhwt8N3qkhqVopb-81" style="rounded=0;orthogonalLoop=1;jettySize=auto;html=1;exitX=0;exitY=0.5;exitDx=0;exitDy=0;endArrow=none;endFill=0;entryX=1;entryY=0.5;entryDx=0;entryDy=0;edgeStyle=orthogonalEdgeStyle;" parent="1" source="7mgR1uhwt8N3qkhqVopb-37" target="7mgR1uhwt8N3qkhqVopb-74" edge="1">
          <mxGeometry relative="1" as="geometry">
            <mxPoint x="2320" y="90" as="sourcePoint" />
            <mxPoint x="1970" y="130" as="targetPoint" />
            <Array as="points">
              <mxPoint x="2240" y="300" />
              <mxPoint x="2240" y="260" />
            </Array>
          </mxGeometry>
        </mxCell>
        <mxCell id="7mgR1uhwt8N3qkhqVopb-83" value="&amp;lt;&amp;lt;확장관계&amp;gt;&amp;gt;" style="edgeStyle=orthogonalEdgeStyle;rounded=0;orthogonalLoop=1;jettySize=auto;html=1;endArrow=classic;endFill=1;exitX=0;exitY=0.5;exitDx=0;exitDy=0;entryX=0.5;entryY=1;entryDx=0;entryDy=0;" parent="1" source="7mgR1uhwt8N3qkhqVopb-9" target="7mgR1uhwt8N3qkhqVopb-52" edge="1">
          <mxGeometry x="-0.3333" relative="1" as="geometry">
            <mxPoint x="1850" y="270" as="sourcePoint" />
            <mxPoint x="1750" y="270" as="targetPoint" />
            <mxPoint as="offset" />
          </mxGeometry>
        </mxCell>
        <mxCell id="7mgR1uhwt8N3qkhqVopb-84" value="&amp;lt;&amp;lt;확장관계&amp;gt;&amp;gt;" style="edgeStyle=orthogonalEdgeStyle;rounded=0;orthogonalLoop=1;jettySize=auto;html=1;endArrow=classic;endFill=1;exitX=0;exitY=0.5;exitDx=0;exitDy=0;entryX=0.5;entryY=1;entryDx=0;entryDy=0;" parent="1" source="7mgR1uhwt8N3qkhqVopb-9" target="7mgR1uhwt8N3qkhqVopb-51" edge="1">
          <mxGeometry x="0.2143" relative="1" as="geometry">
            <mxPoint x="1850" y="270" as="sourcePoint" />
            <mxPoint x="1690" y="150" as="targetPoint" />
            <mxPoint as="offset" />
            <Array as="points">
              <mxPoint x="1830" y="360" />
              <mxPoint x="1830" y="220" />
              <mxPoint x="1680" y="220" />
            </Array>
          </mxGeometry>
        </mxCell>
        <mxCell id="7mgR1uhwt8N3qkhqVopb-85" value="" style="edgeStyle=orthogonalEdgeStyle;rounded=0;orthogonalLoop=1;jettySize=auto;html=1;endArrow=none;endFill=0;startArrow=classic;startFill=1;entryX=0;entryY=0.5;entryDx=0;entryDy=0;exitX=1;exitY=0.5;exitDx=0;exitDy=0;" parent="1" source="7mgR1uhwt8N3qkhqVopb-9" target="7mgR1uhwt8N3qkhqVopb-17" edge="1">
          <mxGeometry relative="1" as="geometry">
            <mxPoint x="1866.5" y="559" as="sourcePoint" />
            <mxPoint x="1955.5" y="609" as="targetPoint" />
          </mxGeometry>
        </mxCell>
        <mxCell id="7mgR1uhwt8N3qkhqVopb-87" value="&amp;lt;&amp;lt;포함관계&amp;gt;&amp;gt;" style="edgeStyle=orthogonalEdgeStyle;rounded=0;orthogonalLoop=1;jettySize=auto;html=1;endArrow=classic;endFill=1;dashed=1;exitX=0;exitY=0.5;exitDx=0;exitDy=0;entryX=0.5;entryY=1;entryDx=0;entryDy=0;" parent="1" source="7mgR1uhwt8N3qkhqVopb-17" target="7mgR1uhwt8N3qkhqVopb-11" edge="1">
          <mxGeometry x="0.1059" relative="1" as="geometry">
            <mxPoint x="1829" y="790" as="sourcePoint" />
            <mxPoint x="1460" y="620" as="targetPoint" />
            <mxPoint x="1" as="offset" />
            <Array as="points">
              <mxPoint x="1470" y="430" />
              <mxPoint x="1470" y="-50" />
            </Array>
          </mxGeometry>
        </mxCell>
        <mxCell id="7mgR1uhwt8N3qkhqVopb-88" value="댓글 &lt;br&gt;쓰기/수정/삭제" style="rounded=1;whiteSpace=wrap;html=1;arcSize=40;fontColor=#000000;fillColor=#ffffc0;strokeColor=#ff0000;" parent="1" vertex="1">
          <mxGeometry x="2067" y="585" width="120" height="40" as="geometry" />
        </mxCell>
        <mxCell id="7mgR1uhwt8N3qkhqVopb-89" value="" style="edgeStyle=orthogonalEdgeStyle;rounded=0;orthogonalLoop=1;jettySize=auto;html=1;endArrow=none;endFill=0;startArrow=classic;startFill=1;entryX=0;entryY=0.5;entryDx=0;entryDy=0;exitX=1;exitY=0.5;exitDx=0;exitDy=0;" parent="1" source="7mgR1uhwt8N3qkhqVopb-9" target="7mgR1uhwt8N3qkhqVopb-18" edge="1">
          <mxGeometry relative="1" as="geometry">
            <mxPoint x="1970" y="370" as="sourcePoint" />
            <mxPoint x="2070" y="370" as="targetPoint" />
          </mxGeometry>
        </mxCell>
        <mxCell id="7mgR1uhwt8N3qkhqVopb-91" value="" style="edgeStyle=orthogonalEdgeStyle;rounded=0;orthogonalLoop=1;jettySize=auto;html=1;endArrow=none;endFill=0;startArrow=classic;startFill=1;entryX=0;entryY=0.5;entryDx=0;entryDy=0;exitX=1;exitY=0.5;exitDx=0;exitDy=0;" parent="1" source="7mgR1uhwt8N3qkhqVopb-9" target="7mgR1uhwt8N3qkhqVopb-88" edge="1">
          <mxGeometry relative="1" as="geometry">
            <mxPoint x="1970" y="370" as="sourcePoint" />
            <mxPoint x="2070" y="470" as="targetPoint" />
          </mxGeometry>
        </mxCell>
        <mxCell id="7mgR1uhwt8N3qkhqVopb-93" value="대댓글 &lt;br&gt;쓰기/수정/삭제" style="rounded=1;whiteSpace=wrap;html=1;arcSize=40;fontColor=#000000;fillColor=#ffffc0;strokeColor=#ff0000;" parent="1" vertex="1">
          <mxGeometry x="2067" y="760" width="120" height="40" as="geometry" />
        </mxCell>
        <mxCell id="7mgR1uhwt8N3qkhqVopb-94" value="" style="edgeStyle=orthogonalEdgeStyle;rounded=0;orthogonalLoop=1;jettySize=auto;html=1;endArrow=none;endFill=0;startArrow=classic;startFill=1;entryX=0;entryY=0.5;entryDx=0;entryDy=0;exitX=1;exitY=0.5;exitDx=0;exitDy=0;" parent="1" source="7mgR1uhwt8N3qkhqVopb-9" target="7mgR1uhwt8N3qkhqVopb-53" edge="1">
          <mxGeometry relative="1" as="geometry">
            <mxPoint x="1970" y="370" as="sourcePoint" />
            <mxPoint x="2070" y="550" as="targetPoint" />
          </mxGeometry>
        </mxCell>
        <mxCell id="7mgR1uhwt8N3qkhqVopb-96" value="" style="edgeStyle=orthogonalEdgeStyle;rounded=0;orthogonalLoop=1;jettySize=auto;html=1;endArrow=none;endFill=0;startArrow=classic;startFill=1;entryX=0;entryY=0.5;entryDx=0;entryDy=0;exitX=1;exitY=0.5;exitDx=0;exitDy=0;" parent="1" source="7mgR1uhwt8N3qkhqVopb-9" target="7mgR1uhwt8N3qkhqVopb-93" edge="1">
          <mxGeometry relative="1" as="geometry">
            <mxPoint x="1970" y="370" as="sourcePoint" />
            <mxPoint x="2070" y="640" as="targetPoint" />
          </mxGeometry>
        </mxCell>
        <mxCell id="7mgR1uhwt8N3qkhqVopb-98" value="&amp;lt;&amp;lt;확장관계&amp;gt;&amp;gt;" style="edgeLabel;html=1;align=center;verticalAlign=middle;resizable=0;points=[];" parent="1" vertex="1" connectable="0">
          <mxGeometry x="2009.9980952380954" y="480" as="geometry" />
        </mxCell>
        <mxCell id="7mgR1uhwt8N3qkhqVopb-100" style="rounded=0;orthogonalLoop=1;jettySize=auto;html=1;endArrow=none;endFill=0;entryX=1;entryY=0.5;entryDx=0;entryDy=0;exitX=0;exitY=0.5;exitDx=0;exitDy=0;edgeStyle=orthogonalEdgeStyle;" parent="1" source="7mgR1uhwt8N3qkhqVopb-37" target="7mgR1uhwt8N3qkhqVopb-17" edge="1">
          <mxGeometry relative="1" as="geometry">
            <mxPoint x="2461" y="468" as="sourcePoint" />
            <mxPoint x="2381" y="468" as="targetPoint" />
            <Array as="points">
              <mxPoint x="2240" y="300" />
              <mxPoint x="2240" y="430" />
            </Array>
          </mxGeometry>
        </mxCell>
        <mxCell id="7mgR1uhwt8N3qkhqVopb-101" style="rounded=0;orthogonalLoop=1;jettySize=auto;html=1;endArrow=none;endFill=0;entryX=1;entryY=0.5;entryDx=0;entryDy=0;exitX=0;exitY=0.5;exitDx=0;exitDy=0;edgeStyle=orthogonalEdgeStyle;" parent="1" source="7mgR1uhwt8N3qkhqVopb-37" target="7mgR1uhwt8N3qkhqVopb-18" edge="1">
          <mxGeometry relative="1" as="geometry">
            <mxPoint x="2391" y="310" as="sourcePoint" />
            <mxPoint x="2190" y="370" as="targetPoint" />
            <Array as="points">
              <mxPoint x="2240" y="300" />
              <mxPoint x="2240" y="518" />
            </Array>
          </mxGeometry>
        </mxCell>
        <mxCell id="7mgR1uhwt8N3qkhqVopb-102" style="rounded=0;orthogonalLoop=1;jettySize=auto;html=1;endArrow=none;endFill=0;entryX=1;entryY=0.5;entryDx=0;entryDy=0;exitX=0;exitY=0.5;exitDx=0;exitDy=0;edgeStyle=orthogonalEdgeStyle;" parent="1" source="7mgR1uhwt8N3qkhqVopb-37" target="7mgR1uhwt8N3qkhqVopb-88" edge="1">
          <mxGeometry relative="1" as="geometry">
            <mxPoint x="2380" y="300" as="sourcePoint" />
            <mxPoint x="2190" y="458" as="targetPoint" />
            <Array as="points">
              <mxPoint x="2240" y="300" />
              <mxPoint x="2240" y="605" />
            </Array>
          </mxGeometry>
        </mxCell>
        <mxCell id="7mgR1uhwt8N3qkhqVopb-103" style="rounded=0;orthogonalLoop=1;jettySize=auto;html=1;endArrow=none;endFill=0;entryX=1;entryY=0.5;entryDx=0;entryDy=0;exitX=0;exitY=0.5;exitDx=0;exitDy=0;edgeStyle=orthogonalEdgeStyle;" parent="1" source="7mgR1uhwt8N3qkhqVopb-37" target="7mgR1uhwt8N3qkhqVopb-53" edge="1">
          <mxGeometry relative="1" as="geometry">
            <mxPoint x="2380" y="300" as="sourcePoint" />
            <mxPoint x="2190" y="545" as="targetPoint" />
            <Array as="points">
              <mxPoint x="2240" y="300" />
              <mxPoint x="2240" y="693" />
            </Array>
          </mxGeometry>
        </mxCell>
        <mxCell id="7mgR1uhwt8N3qkhqVopb-104" style="rounded=0;orthogonalLoop=1;jettySize=auto;html=1;endArrow=none;endFill=0;entryX=1;entryY=0.5;entryDx=0;entryDy=0;exitX=0;exitY=0.5;exitDx=0;exitDy=0;edgeStyle=orthogonalEdgeStyle;" parent="1" source="7mgR1uhwt8N3qkhqVopb-37" target="7mgR1uhwt8N3qkhqVopb-93" edge="1">
          <mxGeometry relative="1" as="geometry">
            <mxPoint x="2380" y="300" as="sourcePoint" />
            <mxPoint x="2190" y="633" as="targetPoint" />
            <Array as="points">
              <mxPoint x="2240" y="300" />
              <mxPoint x="2240" y="780" />
            </Array>
          </mxGeometry>
        </mxCell>
        <mxCell id="7mgR1uhwt8N3qkhqVopb-106" style="rounded=0;orthogonalLoop=1;jettySize=auto;html=1;endArrow=none;endFill=0;entryX=1;entryY=0.5;entryDx=0;entryDy=0;exitX=0;exitY=0.5;exitDx=0;exitDy=0;edgeStyle=orthogonalEdgeStyle;" parent="1" source="7mgR1uhwt8N3qkhqVopb-37" target="7mgR1uhwt8N3qkhqVopb-9" edge="1">
          <mxGeometry relative="1" as="geometry">
            <mxPoint x="2340" y="300" as="sourcePoint" />
            <mxPoint x="2197" y="440" as="targetPoint" />
            <Array as="points">
              <mxPoint x="2240" y="300" />
              <mxPoint x="2240" y="360" />
            </Array>
          </mxGeometry>
        </mxCell>
        <mxCell id="7mgR1uhwt8N3qkhqVopb-107" value="&amp;lt;&amp;lt;포함관계&amp;gt;&amp;gt;" style="edgeStyle=orthogonalEdgeStyle;rounded=0;orthogonalLoop=1;jettySize=auto;html=1;endArrow=classic;endFill=1;dashed=1;exitX=0;exitY=0.5;exitDx=0;exitDy=0;entryX=0.5;entryY=1;entryDx=0;entryDy=0;" parent="1" source="7mgR1uhwt8N3qkhqVopb-88" target="7mgR1uhwt8N3qkhqVopb-11" edge="1">
          <mxGeometry x="-0.0479" relative="1" as="geometry">
            <mxPoint x="2137" y="420" as="sourcePoint" />
            <mxPoint x="1481" y="-40" as="targetPoint" />
            <mxPoint x="1" as="offset" />
            <Array as="points">
              <mxPoint x="1470" y="605" />
              <mxPoint x="1470" y="40" />
              <mxPoint x="1471" y="40" />
            </Array>
          </mxGeometry>
        </mxCell>
        <mxCell id="7mgR1uhwt8N3qkhqVopb-108" value="&amp;lt;&amp;lt;포함관계&amp;gt;&amp;gt;" style="edgeStyle=orthogonalEdgeStyle;rounded=0;orthogonalLoop=1;jettySize=auto;html=1;endArrow=classic;endFill=1;dashed=1;exitX=0;exitY=0.5;exitDx=0;exitDy=0;entryX=0.5;entryY=1;entryDx=0;entryDy=0;" parent="1" source="7mgR1uhwt8N3qkhqVopb-93" target="7mgR1uhwt8N3qkhqVopb-11" edge="1">
          <mxGeometry x="-0.1652" relative="1" as="geometry">
            <mxPoint x="2077" y="615" as="sourcePoint" />
            <mxPoint x="1481" y="-40" as="targetPoint" />
            <mxPoint x="1" as="offset" />
            <Array as="points">
              <mxPoint x="1470" y="780" />
              <mxPoint x="1470" y="-50" />
            </Array>
          </mxGeometry>
        </mxCell>
        <mxCell id="7mgR1uhwt8N3qkhqVopb-8" value="게시판 보기" style="rounded=1;whiteSpace=wrap;html=1;arcSize=40;fontColor=#000000;fillColor=#ffffc0;strokeColor=#ff0000;" parent="1" vertex="1">
          <mxGeometry x="1411" y="175" width="120" height="40" as="geometry" />
        </mxCell>
      </root>
    </mxGraphModel>
  </diagram>
</mxfile>
